<svg width="32" height="32" viewBox="0 0 32 32" fill="none" xmlns="http://www.w3.org/2000/svg">
<path d="M17 32H15V25H17V32ZM10.207 23.207L5.39355 28.0205L3.97949 26.6064L8.79297 21.793L10.207 23.207ZM28.0205 26.6064L26.6064 28.0205L21.793 23.207L23.207 21.793L28.0205 26.6064ZM16 9C19.866 9 23 12.134 23 16C23 19.866 19.866 23 16 23C12.134 23 9 19.866 9 16C9 12.134 12.134 9 16 9ZM7 17H0V15H7V17ZM32 17H25V15H32V17ZM10.207 8.79297L8.79297 10.207L3.97949 5.39355L5.39355 3.97949L10.207 8.79297ZM28.0205 5.39355L23.207 10.207L21.793 8.79297L26.6064 3.97949L28.0205 5.39355ZM17 7H15V0H17V7Z" fill="black"/>
</svg>
